<mxfile host="app.diagrams.net" agent="Mozilla/5.0 (Windows NT 10.0; Win64; x64) AppleWebKit/537.36 (KHTML, like Gecko) Chrome/135.0.0.0 Safari/537.36" version="26.2.12">
  <diagram name="Page-1" id="Pdtf9fU08b-CF6lNp5Cv">
    <mxGraphModel dx="1044" dy="562" grid="1" gridSize="10" guides="1" tooltips="1" connect="1" arrows="1" fold="1" page="1" pageScale="1" pageWidth="850" pageHeight="1100" math="0" shadow="0">
      <root>
        <mxCell id="0" />
        <mxCell id="1" parent="0" />
        <mxCell id="uaSFIh4IuR1ZAxHFCxw0-1" value="" style="edgeStyle=orthogonalEdgeStyle;rounded=0;orthogonalLoop=1;jettySize=auto;html=1;fontSize=14;" edge="1" parent="1" source="uaSFIh4IuR1ZAxHFCxw0-2" target="uaSFIh4IuR1ZAxHFCxw0-5">
          <mxGeometry relative="1" as="geometry" />
        </mxCell>
        <mxCell id="uaSFIh4IuR1ZAxHFCxw0-2" value="Start" style="strokeWidth=2;html=1;shape=mxgraph.flowchart.start_1;whiteSpace=wrap;fontSize=14;" vertex="1" parent="1">
          <mxGeometry x="375" y="300" width="100" height="60" as="geometry" />
        </mxCell>
        <mxCell id="uaSFIh4IuR1ZAxHFCxw0-3" value="End" style="strokeWidth=2;html=1;shape=mxgraph.flowchart.start_1;whiteSpace=wrap;fontSize=14;" vertex="1" parent="1">
          <mxGeometry x="375" y="940" width="100" height="60" as="geometry" />
        </mxCell>
        <mxCell id="uaSFIh4IuR1ZAxHFCxw0-4" value="" style="edgeStyle=orthogonalEdgeStyle;rounded=0;orthogonalLoop=1;jettySize=auto;html=1;fontSize=14;" edge="1" parent="1" source="uaSFIh4IuR1ZAxHFCxw0-5" target="uaSFIh4IuR1ZAxHFCxw0-7">
          <mxGeometry relative="1" as="geometry" />
        </mxCell>
        <mxCell id="uaSFIh4IuR1ZAxHFCxw0-5" value="int i = 1" style="whiteSpace=wrap;html=1;strokeWidth=2;fontSize=14;" vertex="1" parent="1">
          <mxGeometry x="365" y="400" width="120" height="60" as="geometry" />
        </mxCell>
        <mxCell id="uaSFIh4IuR1ZAxHFCxw0-6" value="" style="edgeStyle=orthogonalEdgeStyle;rounded=0;orthogonalLoop=1;jettySize=auto;html=1;fontSize=14;" edge="1" parent="1" source="uaSFIh4IuR1ZAxHFCxw0-7" target="uaSFIh4IuR1ZAxHFCxw0-9">
          <mxGeometry relative="1" as="geometry" />
        </mxCell>
        <mxCell id="uaSFIh4IuR1ZAxHFCxw0-7" value="Print i" style="shape=parallelogram;perimeter=parallelogramPerimeter;whiteSpace=wrap;html=1;fixedSize=1;strokeWidth=2;fontSize=14;" vertex="1" parent="1">
          <mxGeometry x="365" y="490" width="120" height="60" as="geometry" />
        </mxCell>
        <mxCell id="uaSFIh4IuR1ZAxHFCxw0-8" value="" style="edgeStyle=orthogonalEdgeStyle;rounded=0;orthogonalLoop=1;jettySize=auto;html=1;fontSize=14;" edge="1" parent="1" source="uaSFIh4IuR1ZAxHFCxw0-9" target="uaSFIh4IuR1ZAxHFCxw0-14">
          <mxGeometry relative="1" as="geometry" />
        </mxCell>
        <mxCell id="uaSFIh4IuR1ZAxHFCxw0-9" value="i = i + 2" style="whiteSpace=wrap;html=1;strokeWidth=2;fontSize=14;" vertex="1" parent="1">
          <mxGeometry x="365" y="590" width="120" height="60" as="geometry" />
        </mxCell>
        <mxCell id="uaSFIh4IuR1ZAxHFCxw0-10" value="" style="edgeStyle=orthogonalEdgeStyle;rounded=0;orthogonalLoop=1;jettySize=auto;html=1;entryX=0;entryY=0.5;entryDx=0;entryDy=0;fontSize=14;" edge="1" parent="1" source="uaSFIh4IuR1ZAxHFCxw0-14" target="uaSFIh4IuR1ZAxHFCxw0-7">
          <mxGeometry relative="1" as="geometry">
            <mxPoint x="325" y="730" as="targetPoint" />
            <Array as="points">
              <mxPoint x="240" y="730" />
              <mxPoint x="240" y="520" />
            </Array>
          </mxGeometry>
        </mxCell>
        <mxCell id="uaSFIh4IuR1ZAxHFCxw0-11" value="True" style="edgeLabel;html=1;align=center;verticalAlign=middle;resizable=0;points=[];fontSize=14;" vertex="1" connectable="0" parent="uaSFIh4IuR1ZAxHFCxw0-10">
          <mxGeometry x="-0.7437" relative="1" as="geometry">
            <mxPoint as="offset" />
          </mxGeometry>
        </mxCell>
        <mxCell id="uaSFIh4IuR1ZAxHFCxw0-12" value="" style="edgeStyle=orthogonalEdgeStyle;rounded=0;orthogonalLoop=1;jettySize=auto;html=1;fontSize=14;" edge="1" parent="1" source="uaSFIh4IuR1ZAxHFCxw0-14" target="uaSFIh4IuR1ZAxHFCxw0-16">
          <mxGeometry relative="1" as="geometry" />
        </mxCell>
        <mxCell id="uaSFIh4IuR1ZAxHFCxw0-13" value="False" style="edgeLabel;html=1;align=center;verticalAlign=middle;resizable=0;points=[];fontSize=14;" vertex="1" connectable="0" parent="uaSFIh4IuR1ZAxHFCxw0-12">
          <mxGeometry x="-0.184" y="2" relative="1" as="geometry">
            <mxPoint as="offset" />
          </mxGeometry>
        </mxCell>
        <mxCell id="uaSFIh4IuR1ZAxHFCxw0-14" value="i &amp;lt;&amp;nbsp; 10" style="rhombus;whiteSpace=wrap;html=1;strokeWidth=2;fontSize=14;" vertex="1" parent="1">
          <mxGeometry x="385" y="690" width="80" height="80" as="geometry" />
        </mxCell>
        <mxCell id="uaSFIh4IuR1ZAxHFCxw0-15" value="" style="edgeStyle=orthogonalEdgeStyle;rounded=0;orthogonalLoop=1;jettySize=auto;html=1;fontSize=14;" edge="1" parent="1" source="uaSFIh4IuR1ZAxHFCxw0-16" target="uaSFIh4IuR1ZAxHFCxw0-3">
          <mxGeometry relative="1" as="geometry" />
        </mxCell>
        <mxCell id="uaSFIh4IuR1ZAxHFCxw0-16" value="" style="ellipse;whiteSpace=wrap;html=1;strokeWidth=2;fontSize=14;" vertex="1" parent="1">
          <mxGeometry x="385" y="820" width="80" height="80" as="geometry" />
        </mxCell>
        <mxCell id="uaSFIh4IuR1ZAxHFCxw0-18" value="&lt;div style=&quot;color: #cccccc;background-color: #1f1f1f;font-family: Consolas, &#39;Courier New&#39;, monospace;font-weight: normal;font-size: 14px;line-height: 19px;white-space: pre;&quot;&gt;&lt;div&gt;&lt;span style=&quot;color: #6a9955;&quot;&gt;// Print 1 3 5 7 9&lt;/span&gt;&lt;/div&gt;&lt;br&gt;&lt;div&gt;&lt;span style=&quot;color: #6a9955;&quot;&gt;// Step 1: Start&lt;/span&gt;&lt;/div&gt;&lt;div&gt;&lt;span style=&quot;color: #6a9955;&quot;&gt;// Step 2: Intialize variable i by 1&lt;/span&gt;&lt;/div&gt;&lt;div&gt;&lt;span style=&quot;color: #6a9955;&quot;&gt;// Step 3: Print i&lt;/span&gt;&lt;/div&gt;&lt;div&gt;&lt;span style=&quot;color: #6a9955;&quot;&gt;// Step 4: Increment i by 2, i = i + 2&lt;/span&gt;&lt;/div&gt;&lt;div&gt;&lt;span style=&quot;color: #6a9955;&quot;&gt;// Step 5: Check the condition if (i &amp;lt; 10) &lt;/span&gt;&lt;/div&gt;&lt;div&gt;&lt;span style=&quot;color: #6a9955;&quot;&gt;// Step 6: If the condition is true, go to step 3 otherwise go to step 7&lt;/span&gt;&lt;/div&gt;&lt;div&gt;&lt;span style=&quot;color: #6a9955;&quot;&gt;// Step 7: End&lt;/span&gt;&lt;/div&gt;&lt;/div&gt;" style="text;whiteSpace=wrap;html=1;" vertex="1" parent="1">
          <mxGeometry x="40" y="40" width="560" height="190" as="geometry" />
        </mxCell>
      </root>
    </mxGraphModel>
  </diagram>
</mxfile>
